<svg version="1.1" id="Layer_1" xmlns="http://www.w3.org/2000/svg" xmlns:xlink="http://www.w3.org/1999/xlink" x="0px" y="0px"
	 width="100%" viewBox="0 0 588 662" enable-background="new 0 0 588 662" xml:space="preserve">
<path fill="#06060600" opacity="1.000000" stroke="none"
	d="
M330.000000,663.000000
	C220.000015,663.000000 110.500038,663.000000 1.000044,663.000000
	C1.000029,442.333405 1.000029,221.666779 1.000015,1.000133
	C196.999893,1.000089 392.999786,1.000089 588.999756,1.000044
	C588.999878,221.666519 588.999878,442.333038 588.999939,662.999756
	C502.833344,663.000000 416.666656,663.000000 330.000000,663.000000
M582.660095,171.485626
	C581.380127,170.435135 580.217163,169.182800 578.803223,168.363541
	C538.886536,145.234604 498.948486,122.142380 459.005127,99.059464
	C433.048004,84.059059 407.069855,69.095047 381.114258,54.092018
	C355.736572,39.423054 330.405151,24.673786 304.984863,10.079171
	C299.205017,6.760760 293.233551,6.988492 287.392242,10.377172
	C249.792557,32.189590 212.196167,54.007774 174.563705,75.763542
	C121.643860,106.357124 68.692162,136.895599 15.758142,167.464676
	C9.001975,171.366333 5.503090,177.036545 5.621552,185.051422
	C5.806235,197.546539 5.661827,210.046463 5.660062,222.544357
	C5.647801,309.362885 5.640630,396.181427 5.616882,482.999969
	C5.614898,490.253571 8.421991,495.853363 14.834235,499.527435
	C56.454021,523.374695 98.077644,547.215271 139.672668,571.105713
	C188.636108,599.228210 237.568359,627.404968 286.523651,655.541626
	C293.062927,659.299988 299.782440,659.843567 306.469360,656.003662
	C350.526520,630.703918 394.580994,605.399414 438.596954,580.028137
	C484.633820,553.492065 530.639832,526.902344 576.606079,500.244293
	C579.427795,498.607849 581.783203,496.167542 584.983154,493.925568
	C585.770142,491.640961 586.557129,489.356354 587.298645,486.127991
	C587.316772,435.680389 587.356079,385.232758 587.347168,334.785156
	C587.338074,283.173004 587.281677,231.560867 587.661499,179.498703
	C586.848328,177.975845 586.035156,176.452988 584.966797,174.614273
	C584.966797,174.614273 584.853149,174.224487 584.913208,173.565842
	C584.331787,173.024673 583.750366,172.483505 582.660095,171.485626
z"/>
<path fill="#E24B40" opacity="1.000000" stroke="none"
	d="
M584.355591,494.101227
	C581.783203,496.167542 579.427795,498.607849 576.606079,500.244293
	C530.639832,526.902344 484.633820,553.492065 438.596954,580.028137
	C394.580994,605.399414 350.526520,630.703918 306.469360,656.003662
	C299.782440,659.843567 293.062927,659.299988 286.523651,655.541626
	C237.568359,627.404968 188.636108,599.228210 139.672668,571.105713
	C98.077644,547.215271 56.454021,523.374695 14.834235,499.527435
	C8.421991,495.853363 5.614898,490.253571 5.616882,482.999969
	C5.640630,396.181427 5.647801,309.362885 5.660062,222.544357
	C5.661827,210.046463 5.806235,197.546539 5.621552,185.051422
	C5.503090,177.036545 9.001975,171.366333 15.758142,167.464676
	C68.692162,136.895599 121.643860,106.357124 174.563705,75.763542
	C212.196167,54.007774 249.792557,32.189590 287.392242,10.377172
	C293.233551,6.988492 299.205017,6.760760 304.984863,10.079171
	C330.405151,24.673786 355.736572,39.423054 381.114258,54.092018
	C407.069855,69.095047 433.048004,84.059059 459.005127,99.059464
	C498.948486,122.142380 538.886536,145.234604 578.803223,168.363541
	C580.217163,169.182800 581.380127,170.435135 582.940063,172.015182
	C583.764343,173.104660 584.308777,173.664566 584.853149,174.224487
	C584.853149,174.224487 584.966797,174.614273 585.092529,175.123398
	C585.894165,177.071243 586.570129,178.509979 587.246094,179.948700
	C587.281677,231.560867 587.338074,283.173004 587.347168,334.785156
	C587.356079,385.232758 587.316772,435.680389 587.059387,486.825378
	C585.998596,489.715576 585.177124,491.908417 584.355591,494.101227
M519.641113,231.932251
	C514.344849,222.712265 507.562988,214.922363 498.795807,208.722931
	C479.552979,195.115982 457.548920,191.221054 434.818604,190.935745
	C398.501495,190.479919 362.173920,190.853058 325.850800,190.895752
	C324.410431,190.897446 322.970306,191.104965 320.978455,191.259354
	C320.978455,193.387054 320.978668,195.176224 320.978424,196.965393
	C320.975861,215.127441 321.154053,233.292496 320.852905,251.449585
	C320.769958,256.451233 322.046997,258.007050 327.201202,257.968292
	C356.858459,257.745331 386.518433,257.873566 416.177490,257.903900
	C421.675262,257.909546 427.187531,257.779144 432.667450,258.121826
	C441.793518,258.692566 447.120239,263.640930 448.238647,272.100159
	C450.056396,285.849731 442.450806,294.633881 428.488098,294.661652
	C395.663330,294.726868 362.838440,294.705200 330.013580,294.695984
	C327.264099,294.695190 324.795349,294.330048 324.820618,298.574341
	C324.942627,319.068085 324.869080,339.563690 324.723206,360.057617
	C324.700745,363.208527 325.960541,364.140350 328.855560,364.064911
	C333.184479,363.952057 337.519043,364.063202 341.851227,364.067810
	C372.343231,364.100250 402.836273,363.998779 433.326538,364.244843
	C441.818970,364.313385 449.675964,366.680145 453.242432,375.639984
	C458.587891,389.069336 450.633331,401.106781 436.227234,401.190826
	C407.735352,401.357056 379.242157,401.293182 350.749481,401.323944
	C348.804932,401.326050 346.860413,401.324188 345.028839,401.324188
	C344.720398,402.458099 344.442413,402.940826 344.487701,403.391022
	C346.402344,422.424500 348.386475,441.451111 350.246246,460.489838
	C350.561432,463.716644 352.386139,464.012421 355.017517,464.008179
	C388.841827,463.953705 422.671387,464.340118 456.489441,463.875519
	C501.073547,463.263062 535.251953,429.470001 534.711426,385.996246
	C534.377747,359.158203 522.216309,338.800812 497.145386,327.236603
	C495.714783,326.576691 494.301514,325.879150 492.147766,324.848724
	C494.965088,323.141815 496.955200,321.964020 498.917999,320.742401
	C511.712830,312.779266 520.685181,301.813324 525.165710,287.316223
	C531.026489,268.353271 528.765381,250.163727 519.641113,231.932251
M103.897072,463.380737
	C181.609116,463.380737 259.321167,463.380737 337.853699,463.380737
	C336.473450,459.044647 335.519958,455.709656 334.357758,452.449066
	C315.631744,399.912689 296.890839,347.381592 278.128357,294.858246
	C266.758209,263.029022 255.343170,231.215836 243.953079,199.393753
	C240.878311,190.803391 240.886353,190.823410 232.019547,190.838715
	C210.026306,190.876648 188.033020,190.883194 166.039795,190.930801
	C164.150177,190.934891 162.261032,191.150238 159.622314,191.313919
	C186.327087,260.967407 212.722641,329.814392 239.292007,399.114685
	C212.892258,399.114685 187.374771,399.114685 161.173767,399.114685
	C171.262314,363.778656 181.152527,329.137268 191.183228,294.003784
	C189.077682,293.702911 187.821594,293.365631 186.566055,293.367706
	C168.072540,293.398315 149.570877,293.807709 131.090225,293.352783
	C124.865639,293.199554 122.955002,295.919128 121.170395,301.003082
	C102.914948,353.008728 84.455223,404.942719 66.083908,456.907745
	C65.447456,458.708069 65.139000,460.624329 64.454460,463.387482
	C77.786919,463.387482 90.385345,463.387482 103.897072,463.380737
z"/>
<path fill="#F6D2CF" opacity="1.000000" stroke="none"
	d="
M584.669373,494.013397
	C585.177124,491.908417 585.998596,489.715576 587.082153,487.297241
	C586.557129,489.356354 585.770142,491.640961 584.669373,494.013397
z"/>
<path fill="#F6D2CF" opacity="1.000000" stroke="none"
	d="
M587.453796,179.723694
	C586.570129,178.509979 585.894165,177.071243 585.220093,175.281326
	C586.035156,176.452988 586.848328,177.975845 587.453796,179.723694
z"/>
<path fill="#F6D2CF" opacity="1.000000" stroke="none"
	d="
M584.883179,173.895172
	C584.308777,173.664566 583.764343,173.104660 583.194458,172.243546
	C583.750366,172.483505 584.331787,173.024673 584.883179,173.895172
z"/>
<path fill="#FEFDFD" opacity="1.000000" stroke="none"
	d="
M519.811523,232.261108
	C528.765381,250.163727 531.026489,268.353271 525.165710,287.316223
	C520.685181,301.813324 511.712830,312.779266 498.917999,320.742401
	C496.955200,321.964020 494.965088,323.141815 492.147766,324.848724
	C494.301514,325.879150 495.714783,326.576691 497.145386,327.236603
	C522.216309,338.800812 534.377747,359.158203 534.711426,385.996246
	C535.251953,429.470001 501.073547,463.263062 456.489441,463.875519
	C422.671387,464.340118 388.841827,463.953705 355.017517,464.008179
	C352.386139,464.012421 350.561432,463.716644 350.246246,460.489838
	C348.386475,441.451111 346.402344,422.424500 344.487701,403.391022
	C344.442413,402.940826 344.720398,402.458099 345.028839,401.324188
	C346.860413,401.324188 348.804932,401.326050 350.749481,401.323944
	C379.242157,401.293182 407.735352,401.357056 436.227234,401.190826
	C450.633331,401.106781 458.587891,389.069336 453.242432,375.639984
	C449.675964,366.680145 441.818970,364.313385 433.326538,364.244843
	C402.836273,363.998779 372.343231,364.100250 341.851227,364.067810
	C337.519043,364.063202 333.184479,363.952057 328.855560,364.064911
	C325.960541,364.140350 324.700745,363.208527 324.723206,360.057617
	C324.869080,339.563690 324.942627,319.068085 324.820618,298.574341
	C324.795349,294.330048 327.264099,294.695190 330.013580,294.695984
	C362.838440,294.705200 395.663330,294.726868 428.488098,294.661652
	C442.450806,294.633881 450.056396,285.849731 448.238647,272.100159
	C447.120239,263.640930 441.793518,258.692566 432.667450,258.121826
	C427.187531,257.779144 421.675262,257.909546 416.177490,257.903900
	C386.518433,257.873566 356.858459,257.745331 327.201202,257.968292
	C322.046997,258.007050 320.769958,256.451233 320.852905,251.449585
	C321.154053,233.292496 320.975861,215.127441 320.978424,196.965393
	C320.978668,195.176224 320.978455,193.387054 320.978455,191.259354
	C322.970306,191.104965 324.410431,190.897446 325.850800,190.895752
	C362.173920,190.853058 398.501495,190.479919 434.818604,190.935745
	C457.548920,191.221054 479.552979,195.115982 498.795807,208.722931
	C507.562988,214.922363 514.344849,222.712265 519.811523,232.261108
z"/>
<path fill="#FEFDFD" opacity="1.000000" stroke="none"
	d="
M103.440422,463.384094
	C90.385345,463.387482 77.786919,463.387482 64.454460,463.387482
	C65.139000,460.624329 65.447456,458.708069 66.083908,456.907745
	C84.455223,404.942719 102.914948,353.008728 121.170395,301.003082
	C122.955002,295.919128 124.865639,293.199554 131.090225,293.352783
	C149.570877,293.807709 168.072540,293.398315 186.566055,293.367706
	C187.821594,293.365631 189.077682,293.702911 191.183228,294.003784
	C181.152527,329.137268 171.262314,363.778656 161.173767,399.114685
	C187.374771,399.114685 212.892258,399.114685 239.292007,399.114685
	C212.722641,329.814392 186.327087,260.967407 159.622314,191.313919
	C162.261032,191.150238 164.150177,190.934891 166.039795,190.930801
	C188.033020,190.883194 210.026306,190.876648 232.019547,190.838715
	C240.886353,190.823410 240.878311,190.803391 243.953079,199.393753
	C255.343170,231.215836 266.758209,263.029022 278.128357,294.858246
	C296.890839,347.381592 315.631744,399.912689 334.357758,452.449066
	C335.519958,455.709656 336.473450,459.044647 337.853699,463.380737
	C259.321167,463.380737 181.609116,463.380737 103.440422,463.384094
z"/>
</svg>
